<?xml version="1.0" encoding="utf-8"?>
<!-- Generator: Adobe Illustrator 19.1.0, SVG Export Plug-In . SVG Version: 6.00 Build 0)  -->
<svg version="1.1" id="Layer_1" xmlns="http://www.w3.org/2000/svg" xmlns:xlink="http://www.w3.org/1999/xlink" x="0px" y="0px"
	 viewBox="-484 496 28 20" style="enable-background:new -484 496 28 20;" xml:space="preserve">
<style type="text/css">
	.st0{fill:#FFFFFF;}
</style>
<path class="st0" d="M-482,500h24c1.1,0,2-0.9,2-2s-0.9-2-2-2h-24c-1.1,0-2,0.9-2,2S-483.1,500-482,500z M-458,504h-24
	c-1.1,0-2,0.9-2,2s0.9,2,2,2h24c1.1,0,2-0.9,2-2S-456.9,504-458,504z M-458,512h-24c-1.1,0-2,0.9-2,2s0.9,2,2,2h24c1.1,0,2-0.9,2-2
	S-456.9,512-458,512z"/>
</svg>
